<mxfile host="app.diagrams.net" modified="2023-03-23T16:20:09.736Z" agent="5.0 (Macintosh)" etag="RS2aoQvbiUwKgi5gJpF3" compressed="false" version="21.0.10" type="device">
  <diagram name="Page-1" id="2YBvvXClWsGukQMizWep">
    <mxGraphModel dx="1004" dy="646" grid="1" gridSize="10" guides="1" tooltips="1" connect="1" arrows="1" fold="1" page="1" pageScale="1" pageWidth="850" pageHeight="1100" math="0" shadow="0">
      <root>
        <mxCell id="0" />
        <mxCell id="1" parent="0" />
        <mxCell id="aM9ryv3xv72pqoxQDRHE-5" value="Library API" style="shape=umlLifeline;perimeter=lifelinePerimeter;whiteSpace=wrap;html=1;container=0;dropTarget=0;collapsible=0;recursiveResize=0;outlineConnect=0;portConstraint=eastwest;newEdgeStyle={&quot;edgeStyle&quot;:&quot;elbowEdgeStyle&quot;,&quot;elbow&quot;:&quot;vertical&quot;,&quot;curved&quot;:0,&quot;rounded&quot;:0};" parent="1" vertex="1">
          <mxGeometry x="490" y="40" width="130" height="660" as="geometry" />
        </mxCell>
        <mxCell id="aM9ryv3xv72pqoxQDRHE-6" value="" style="html=1;points=[];perimeter=orthogonalPerimeter;outlineConnect=0;targetShapes=umlLifeline;portConstraint=eastwest;newEdgeStyle={&quot;edgeStyle&quot;:&quot;elbowEdgeStyle&quot;,&quot;elbow&quot;:&quot;vertical&quot;,&quot;curved&quot;:0,&quot;rounded&quot;:0};strokeColor=#3399FF;" parent="aM9ryv3xv72pqoxQDRHE-5" vertex="1">
          <mxGeometry x="60" y="90" width="10" height="340" as="geometry" />
        </mxCell>
        <mxCell id="fCjNDRdymDhb6TnAWpX7-8" value="Student" style="shape=umlActor;verticalLabelPosition=bottom;verticalAlign=top;html=1;outlineConnect=0;strokeColor=#000000;fontSize=13;" parent="1" vertex="1">
          <mxGeometry x="50" y="40" width="30" height="60" as="geometry" />
        </mxCell>
        <mxCell id="fCjNDRdymDhb6TnAWpX7-12" value="" style="html=1;points=[];perimeter=orthogonalPerimeter;outlineConnect=0;targetShapes=umlLifeline;portConstraint=eastwest;newEdgeStyle={&quot;edgeStyle&quot;:&quot;elbowEdgeStyle&quot;,&quot;elbow&quot;:&quot;vertical&quot;,&quot;curved&quot;:0,&quot;rounded&quot;:0};strokeColor=#3399FF;" parent="1" vertex="1">
          <mxGeometry x="60" y="130" width="10" height="550" as="geometry" />
        </mxCell>
        <mxCell id="fCjNDRdymDhb6TnAWpX7-27" value="Room Interface" style="shape=umlLifeline;perimeter=lifelinePerimeter;whiteSpace=wrap;html=1;container=0;dropTarget=0;collapsible=0;recursiveResize=0;outlineConnect=0;portConstraint=eastwest;newEdgeStyle={&quot;edgeStyle&quot;:&quot;elbowEdgeStyle&quot;,&quot;elbow&quot;:&quot;vertical&quot;,&quot;curved&quot;:0,&quot;rounded&quot;:0};" parent="1" vertex="1">
          <mxGeometry x="227.5" y="40" width="100" height="660" as="geometry" />
        </mxCell>
        <mxCell id="fCjNDRdymDhb6TnAWpX7-28" value="" style="html=1;points=[];perimeter=orthogonalPerimeter;outlineConnect=0;targetShapes=umlLifeline;portConstraint=eastwest;newEdgeStyle={&quot;edgeStyle&quot;:&quot;elbowEdgeStyle&quot;,&quot;elbow&quot;:&quot;vertical&quot;,&quot;curved&quot;:0,&quot;rounded&quot;:0};strokeColor=#3399FF;" parent="fCjNDRdymDhb6TnAWpX7-27" vertex="1">
          <mxGeometry x="45" y="90" width="10" height="550" as="geometry" />
        </mxCell>
        <mxCell id="fCjNDRdymDhb6TnAWpX7-33" value="" style="endArrow=none;dashed=1;html=1;rounded=0;fontSize=13;" parent="1" target="fCjNDRdymDhb6TnAWpX7-12" edge="1">
          <mxGeometry width="50" height="50" relative="1" as="geometry">
            <mxPoint x="65" y="700" as="sourcePoint" />
            <mxPoint x="65" y="660" as="targetPoint" />
            <Array as="points" />
          </mxGeometry>
        </mxCell>
        <mxCell id="fCjNDRdymDhb6TnAWpX7-34" value="" style="endArrow=classic;html=1;rounded=0;fontSize=13;" parent="1" source="fCjNDRdymDhb6TnAWpX7-12" target="fCjNDRdymDhb6TnAWpX7-28" edge="1">
          <mxGeometry width="50" height="50" relative="1" as="geometry">
            <mxPoint x="170" y="380" as="sourcePoint" />
            <mxPoint x="220" y="330" as="targetPoint" />
            <Array as="points">
              <mxPoint x="140" y="150" />
            </Array>
          </mxGeometry>
        </mxCell>
        <mxCell id="fCjNDRdymDhb6TnAWpX7-38" value="viewRooms(date, groupSize)" style="text;html=1;strokeColor=none;fillColor=none;align=center;verticalAlign=middle;whiteSpace=wrap;rounded=0;fontSize=13;" parent="1" vertex="1">
          <mxGeometry x="70" y="130" width="180" height="20" as="geometry" />
        </mxCell>
        <mxCell id="fCjNDRdymDhb6TnAWpX7-42" value="reserveRoom(date, roomID)" style="text;html=1;strokeColor=none;fillColor=none;align=center;verticalAlign=middle;whiteSpace=wrap;rounded=0;fontSize=13;" parent="1" vertex="1">
          <mxGeometry x="70" y="290" width="170" height="20" as="geometry" />
        </mxCell>
        <mxCell id="fCjNDRdymDhb6TnAWpX7-45" value="alt" style="shape=umlFrame;whiteSpace=wrap;html=1;pointerEvents=0;strokeColor=#000000;fontSize=13;width=40;height=20;" parent="1" vertex="1">
          <mxGeometry x="10" y="220" width="590" height="360" as="geometry" />
        </mxCell>
        <mxCell id="fCjNDRdymDhb6TnAWpX7-46" value="[Study Rooms Available]" style="text;html=1;strokeColor=none;fillColor=none;align=center;verticalAlign=middle;whiteSpace=wrap;rounded=0;fontSize=13;" parent="1" vertex="1">
          <mxGeometry x="10" y="240" width="150" height="20" as="geometry" />
        </mxCell>
        <mxCell id="fCjNDRdymDhb6TnAWpX7-47" value="" style="endArrow=classic;html=1;rounded=0;fontSize=13;dashed=1;" parent="1" source="aM9ryv3xv72pqoxQDRHE-6" target="fCjNDRdymDhb6TnAWpX7-28" edge="1">
          <mxGeometry width="50" height="50" relative="1" as="geometry">
            <mxPoint x="450" y="400" as="sourcePoint" />
            <mxPoint x="465" y="240" as="targetPoint" />
            <Array as="points">
              <mxPoint x="470" y="200" />
            </Array>
          </mxGeometry>
        </mxCell>
        <mxCell id="fCjNDRdymDhb6TnAWpX7-48" value="Study Rooms" style="text;html=1;strokeColor=none;fillColor=none;align=center;verticalAlign=middle;whiteSpace=wrap;rounded=0;fontSize=13;" parent="1" vertex="1">
          <mxGeometry x="327.5" y="180" width="90" height="20" as="geometry" />
        </mxCell>
        <mxCell id="fCjNDRdymDhb6TnAWpX7-51" value="" style="endArrow=classic;html=1;rounded=0;fontSize=13;" parent="1" edge="1">
          <mxGeometry width="50" height="50" relative="1" as="geometry">
            <mxPoint x="70" y="310" as="sourcePoint" />
            <mxPoint x="272.5" y="310" as="targetPoint" />
            <Array as="points">
              <mxPoint x="140" y="310" />
              <mxPoint x="205" y="310" />
            </Array>
          </mxGeometry>
        </mxCell>
        <mxCell id="fCjNDRdymDhb6TnAWpX7-52" value="" style="endArrow=classic;html=1;rounded=0;fontSize=13;dashed=1;" parent="1" source="aM9ryv3xv72pqoxQDRHE-6" edge="1">
          <mxGeometry width="50" height="50" relative="1" as="geometry">
            <mxPoint x="500" y="360" as="sourcePoint" />
            <mxPoint x="282.5" y="360" as="targetPoint" />
            <Array as="points">
              <mxPoint x="420" y="360" />
              <mxPoint x="340" y="360" />
            </Array>
          </mxGeometry>
        </mxCell>
        <mxCell id="fCjNDRdymDhb6TnAWpX7-53" value="Availability" style="text;html=1;strokeColor=none;fillColor=none;align=center;verticalAlign=middle;whiteSpace=wrap;rounded=0;fontSize=13;" parent="1" vertex="1">
          <mxGeometry x="355" y="340" width="90" height="20" as="geometry" />
        </mxCell>
        <mxCell id="fCjNDRdymDhb6TnAWpX7-55" value="alt" style="shape=umlFrame;whiteSpace=wrap;html=1;pointerEvents=0;strokeColor=#000000;fontSize=13;width=40;height=20;" parent="1" vertex="1">
          <mxGeometry x="30" y="380" width="550" height="110" as="geometry" />
        </mxCell>
        <mxCell id="fCjNDRdymDhb6TnAWpX7-57" value="[Availability OK]" style="text;html=1;strokeColor=none;fillColor=none;align=center;verticalAlign=middle;whiteSpace=wrap;rounded=0;fontSize=13;" parent="1" vertex="1">
          <mxGeometry x="30" y="405" width="100" height="20" as="geometry" />
        </mxCell>
        <mxCell id="fCjNDRdymDhb6TnAWpX7-58" value="" style="endArrow=classic;html=1;rounded=0;fontSize=13;dashed=1;" parent="1" edge="1">
          <mxGeometry width="50" height="50" relative="1" as="geometry">
            <mxPoint x="272.5" y="475" as="sourcePoint" />
            <mxPoint x="70" y="475" as="targetPoint" />
            <Array as="points">
              <mxPoint x="170" y="475" />
            </Array>
          </mxGeometry>
        </mxCell>
        <mxCell id="fCjNDRdymDhb6TnAWpX7-59" value="Display Success" style="text;html=1;strokeColor=none;fillColor=none;align=center;verticalAlign=middle;whiteSpace=wrap;rounded=0;fontSize=13;" parent="1" vertex="1">
          <mxGeometry x="82.5" y="450" width="175" height="20" as="geometry" />
        </mxCell>
        <mxCell id="fCjNDRdymDhb6TnAWpX7-60" value="" style="rounded=0;whiteSpace=wrap;html=1;strokeColor=#000000;fontSize=13;fillColor=none;" parent="1" vertex="1">
          <mxGeometry x="30" y="490" width="550" height="70" as="geometry" />
        </mxCell>
        <mxCell id="fCjNDRdymDhb6TnAWpX7-61" value="[Availability FAIL]" style="text;html=1;strokeColor=none;fillColor=none;align=center;verticalAlign=middle;whiteSpace=wrap;rounded=0;fontSize=13;" parent="1" vertex="1">
          <mxGeometry x="30" y="490" width="110" height="20" as="geometry" />
        </mxCell>
        <mxCell id="fCjNDRdymDhb6TnAWpX7-63" value="" style="endArrow=classic;html=1;rounded=0;dashed=1;fontSize=13;" parent="1" edge="1">
          <mxGeometry width="50" height="50" relative="1" as="geometry">
            <mxPoint x="272.5" y="530" as="sourcePoint" />
            <mxPoint x="70" y="530" as="targetPoint" />
            <Array as="points">
              <mxPoint x="230" y="530" />
              <mxPoint x="180" y="530" />
            </Array>
          </mxGeometry>
        </mxCell>
        <mxCell id="fCjNDRdymDhb6TnAWpX7-64" value="Display Failure" style="text;html=1;strokeColor=none;fillColor=none;align=center;verticalAlign=middle;whiteSpace=wrap;rounded=0;fontSize=13;" parent="1" vertex="1">
          <mxGeometry x="68.75" y="510" width="202.5" height="20" as="geometry" />
        </mxCell>
        <mxCell id="fCjNDRdymDhb6TnAWpX7-65" value="" style="rounded=0;whiteSpace=wrap;html=1;strokeColor=#000000;fontSize=13;fillColor=none;" parent="1" vertex="1">
          <mxGeometry x="10" y="580" width="590" height="80" as="geometry" />
        </mxCell>
        <mxCell id="fCjNDRdymDhb6TnAWpX7-66" value="[Study Rooms Unavailable]" style="text;html=1;strokeColor=none;fillColor=none;align=center;verticalAlign=middle;whiteSpace=wrap;rounded=0;fontSize=13;" parent="1" vertex="1">
          <mxGeometry x="10" y="580" width="170" height="20" as="geometry" />
        </mxCell>
        <mxCell id="fCjNDRdymDhb6TnAWpX7-67" value="" style="endArrow=classic;html=1;rounded=0;dashed=1;fontSize=13;" parent="1" edge="1" target="fCjNDRdymDhb6TnAWpX7-12">
          <mxGeometry width="50" height="50" relative="1" as="geometry">
            <mxPoint x="270" y="630" as="sourcePoint" />
            <mxPoint x="67.5" y="630" as="targetPoint" />
            <Array as="points">
              <mxPoint x="247.5" y="630" />
              <mxPoint x="157.5" y="630" />
            </Array>
          </mxGeometry>
        </mxCell>
        <mxCell id="fCjNDRdymDhb6TnAWpX7-68" value="Display Unavailable" style="text;html=1;strokeColor=none;fillColor=none;align=center;verticalAlign=middle;whiteSpace=wrap;rounded=0;fontSize=13;" parent="1" vertex="1">
          <mxGeometry x="68.75" y="610" width="200" height="20" as="geometry" />
        </mxCell>
        <mxCell id="rRXSsjVVOujCLNNW3dV_-1" value="getRooms(date, groupSize)" style="text;html=1;strokeColor=none;fillColor=none;align=center;verticalAlign=middle;whiteSpace=wrap;rounded=0;fontSize=13;" parent="1" vertex="1">
          <mxGeometry x="287.5" y="150" width="170" height="20" as="geometry" />
        </mxCell>
        <mxCell id="rRXSsjVVOujCLNNW3dV_-2" value="" style="endArrow=classic;html=1;rounded=0;" parent="1" source="fCjNDRdymDhb6TnAWpX7-28" target="aM9ryv3xv72pqoxQDRHE-6" edge="1">
          <mxGeometry width="50" height="50" relative="1" as="geometry">
            <mxPoint x="272.5" y="190" as="sourcePoint" />
            <mxPoint x="690" y="170" as="targetPoint" />
            <Array as="points">
              <mxPoint x="320" y="170" />
              <mxPoint x="408" y="170" />
              <mxPoint x="460" y="170" />
            </Array>
          </mxGeometry>
        </mxCell>
        <mxCell id="rRXSsjVVOujCLNNW3dV_-4" value="" style="endArrow=classic;html=1;rounded=0;fontSize=13;dashed=1;" parent="1" source="fCjNDRdymDhb6TnAWpX7-28" target="fCjNDRdymDhb6TnAWpX7-12" edge="1">
          <mxGeometry width="50" height="50" relative="1" as="geometry">
            <mxPoint x="265" y="280" as="sourcePoint" />
            <mxPoint x="70" y="290" as="targetPoint" />
            <Array as="points">
              <mxPoint x="230" y="280" />
              <mxPoint x="180" y="280" />
            </Array>
          </mxGeometry>
        </mxCell>
        <mxCell id="rRXSsjVVOujCLNNW3dV_-5" value="Display Rooms" style="text;html=1;strokeColor=none;fillColor=none;align=center;verticalAlign=middle;whiteSpace=wrap;rounded=0;fontSize=13;" parent="1" vertex="1">
          <mxGeometry x="125" y="260" width="90" height="20" as="geometry" />
        </mxCell>
        <mxCell id="rRXSsjVVOujCLNNW3dV_-7" value="checkAvailability(date, roomID)" style="text;html=1;strokeColor=none;fillColor=none;align=center;verticalAlign=middle;whiteSpace=wrap;rounded=0;fontSize=13;" parent="1" vertex="1">
          <mxGeometry x="280" y="310" width="200" height="20" as="geometry" />
        </mxCell>
        <mxCell id="rRXSsjVVOujCLNNW3dV_-8" value="" style="endArrow=classic;html=1;rounded=0;" parent="1" target="aM9ryv3xv72pqoxQDRHE-6" edge="1">
          <mxGeometry width="50" height="50" relative="1" as="geometry">
            <mxPoint x="282.5" y="330" as="sourcePoint" />
            <mxPoint x="500" y="330.0000000000001" as="targetPoint" />
            <Array as="points">
              <mxPoint x="290" y="330" />
              <mxPoint x="380" y="330" />
              <mxPoint x="470" y="330" />
              <mxPoint x="520" y="330" />
              <mxPoint x="530" y="330" />
            </Array>
          </mxGeometry>
        </mxCell>
        <mxCell id="eTUxnr8WWPegJwxTFaa1-1" value="updateAvailability(date, roomID, studentID)" style="text;html=1;strokeColor=none;fillColor=none;align=center;verticalAlign=middle;whiteSpace=wrap;rounded=0;fontSize=13;" parent="1" vertex="1">
          <mxGeometry x="285" y="430" width="255" height="20" as="geometry" />
        </mxCell>
        <mxCell id="eTUxnr8WWPegJwxTFaa1-2" value="" style="endArrow=classic;html=1;rounded=0;" parent="1" target="aM9ryv3xv72pqoxQDRHE-6" edge="1" source="fCjNDRdymDhb6TnAWpX7-28">
          <mxGeometry width="50" height="50" relative="1" as="geometry">
            <mxPoint x="280" y="450" as="sourcePoint" />
            <mxPoint x="497.5" y="450" as="targetPoint" />
            <Array as="points">
              <mxPoint x="327.5" y="450" />
              <mxPoint x="377.5" y="450" />
              <mxPoint x="397.5" y="450" />
              <mxPoint x="417.5" y="450" />
              <mxPoint x="467.5" y="450" />
            </Array>
          </mxGeometry>
        </mxCell>
      </root>
    </mxGraphModel>
  </diagram>
</mxfile>
